<?xml version="1.0" encoding="iso-8859-1"?>
<!-- Generator: Adobe Illustrator 19.0.0, SVG Export Plug-In . SVG Version: 6.00 Build 0)  -->
<svg version="1.1" id="Layer_1" xmlns="http://www.w3.org/2000/svg" xmlns:xlink="http://www.w3.org/1999/xlink" x="0px" y="0px"
	 viewBox="0 0 512 512" style="enable-background:new 0 0 512 512;" xml:space="preserve">
<path style="fill:#F95428;" d="M385.462,339.345H126.539c0-71.496,57.96-129.456,129.467-129.456
	C327.502,209.889,385.462,267.849,385.462,339.345z"/>
<path style="fill:#E54728;" d="M284.962,213.143c-9.31-2.127-19.001-3.254-28.956-3.254c-71.507,0-129.467,57.96-129.467,129.456
	h57.915C184.454,277.803,227.399,226.294,284.962,213.143z"/>
<path style="fill:#FFFFFF;" d="M353.79,317.996c-3.517,0-6.767-2.282-7.84-5.822c-5.718-18.892-17.609-35.892-33.48-47.867
	c-16.396-12.371-35.921-18.91-56.465-18.91c-4.525,0-8.194-3.669-8.194-8.194s3.669-8.194,8.194-8.194
	c24.134,0,47.072,7.682,66.335,22.216c18.621,14.05,32.577,34.009,39.296,56.201c1.311,4.331-1.137,8.905-5.469,10.216
	C355.377,317.881,354.577,317.996,353.79,317.996z"/>
<path style="fill:#E09B2D;" d="M462.126,309.856h-51.231c-4.526,0-8.194-3.669-8.194-8.194s3.668-8.194,8.194-8.194h51.231
	c4.526,0,8.194,3.669,8.194,8.194S466.653,309.856,462.126,309.856z"/>
<path style="fill:#333333;" d="M503.806,331.151h-110.4c-4.254-72.099-64.251-129.456-137.4-129.456
	c-73.155,0-133.155,57.357-137.411,129.456H8.194c-4.525,0-8.194,3.669-8.194,8.194s3.669,8.194,8.194,8.194h495.612
	c4.526,0,8.194-3.669,8.194-8.194S508.332,331.151,503.806,331.151z M256.006,218.082c64.11,0,116.751,50.011,120.979,113.068
	H135.016C139.245,268.093,191.89,218.082,256.006,218.082z"/>
<path style="fill:#F7B239;" d="M363.251,223.721c-2.097,0-4.194-0.8-5.795-2.4c-3.2-3.2-3.2-8.389,0-11.588l58.287-58.287
	c3.201-3.2,8.389-3.2,11.589,0c3.2,3.2,3.2,8.389,0,11.588l-58.287,58.287C367.445,222.92,365.347,223.721,363.251,223.721z"/>
<g>
	<path style="fill:#E09B2D;" d="M255.995,177.111c-4.525,0-8.194-3.669-8.194-8.194V72.239c0-4.525,3.669-8.194,8.194-8.194
		c4.526,0,8.194,3.669,8.194,8.194v96.68C264.189,173.443,260.522,177.111,255.995,177.111z"/>
	<path style="fill:#E09B2D;" d="M101.104,309.856h-51.23c-4.525,0-8.194-3.669-8.194-8.194s3.669-8.194,8.194-8.194h51.23
		c4.525,0,8.194,3.669,8.194,8.194S105.63,309.856,101.104,309.856z"/>
</g>
<path style="fill:#F7B239;" d="M148.751,223.721c-2.097,0-4.194-0.8-5.794-2.4l-58.287-58.287c-3.2-3.2-3.2-8.389,0-11.588
	c3.2-3.2,8.389-3.2,11.588,0l58.287,58.287c3.2,3.2,3.2,8.389,0,11.588C152.945,222.92,150.847,223.721,148.751,223.721z"/>
<path style="fill:#F95428;" d="M374.81,381.015H137.191c-4.525,0-8.194-3.669-8.194-8.194s3.669-8.194,8.194-8.194H374.81
	c4.526,0,8.194,3.669,8.194,8.194S379.336,381.015,374.81,381.015z"/>
<path style="fill:#F7B239;" d="M351.407,414.48H160.605c-4.525,0-8.194-3.669-8.194-8.194c0-4.525,3.669-8.194,8.194-8.194h190.803
	c4.526,0,8.194,3.669,8.194,8.194C359.602,410.811,355.934,414.48,351.407,414.48z"/>
<path style="fill:#F95428;" d="M320.27,447.955H191.731c-4.525,0-8.194-3.669-8.194-8.194c0-4.525,3.669-8.194,8.194-8.194H320.27
	c4.526,0,8.194,3.669,8.194,8.194C328.464,444.287,324.796,447.955,320.27,447.955z"/>
<g>
</g>
<g>
</g>
<g>
</g>
<g>
</g>
<g>
</g>
<g>
</g>
<g>
</g>
<g>
</g>
<g>
</g>
<g>
</g>
<g>
</g>
<g>
</g>
<g>
</g>
<g>
</g>
<g>
</g>
</svg>
